<svg width="31" height="42" viewBox="0 0 31 42" fill="none" xmlns="http://www.w3.org/2000/svg">
<path d="M10 24.0001C9.5122 22.9597 7.95122 20.8324 6 20.0001V13.0001M6 13.0001C5.27681 11.6119 3.42785 9.26782 1.65479 11.1101C1.15327 11.6312 1 12.3813 1 13.1046V22.0761C1 22.6786 1.17833 23.2676 1.51252 23.7689L3 26.0001M6 13.0001V5.67997C6 5.23219 6.08643 4.78305 6.31343 4.39708C6.85442 3.47724 7.72325 2.63855 9 4.00007M9 4.00007V14.0001M9 4.00007C9.13487 2.70562 10.3381 0.750974 12.5262 1.30937C13.515 1.5617 14 2.61269 14 3.63314C14 3.74988 14 3.87225 14 4.00007M14 15.0001C14 12.0443 14 6.86087 14 4.00007M14 4.00007C14.5883 3.37271 16.1078 2.17788 17.5478 3.49527C17.8727 3.79246 18 4.23808 18 4.67835V8.00007M18 14.0001V8.00007M18 8.00007C18.4572 7.34994 19.3216 6.45606 20.7137 7.71748C20.9052 7.89104 21 8.14392 21 8.4024V12.0001" stroke="#CB4E5D"/>
<path d="M23 31.0001C23.3616 30.235 24.5537 28.6121 26 28.0001V23.0001M26 23.0001C26.5063 22.0359 27.9647 20.2576 29.2757 21.1662C29.874 21.581 30 22.3841 30 23.1122V28.7361C30 29.5454 29.6785 30.3216 29.1062 30.8939L28 32.0001C27.2849 32.5153 26 33.5879 26 34.0001C26 34.4123 26 39.5957 26 42.0001M26 23.0001V17.6849C26 17.234 25.9138 16.7821 25.7126 16.3786C25.3697 15.6908 24.8804 15.0686 24 16.0001M24 16.0001V24.0001M24 16.0001C23.8956 15.0056 22.7061 13.8347 20.8846 14.5357C20.3019 14.76 20 15.3757 20 16.0001V16.0001M20 24.0001C20 21.8266 20 18.1038 20 16.0001M20 16.0001C19.5873 15.5635 19.2634 14.7531 18.4529 15.4888C18.1249 15.7865 18 16.2398 18 16.6827V19.0001M18 24.0001V19.0001M18 19.0001C17.6691 18.5333 16.4004 17.8957 15.3007 18.729C15.0935 18.886 15 19.1449 15 19.4048V22.0001C15 24.9276 14.6047 31.3514 15 33.0001V42.0001" stroke="#78BDDC"/>
<path d="M6 37.0001C5.73171 36.5414 5.07317 35.367 4 35.0001V31.0001M4 31.0001C3.68805 30.5201 2.87358 29.9955 2.04518 30.2204C1.2119 30.4467 1 31.4655 1 32.3289V34.736C1 35.5454 1.32151 36.3216 1.8938 36.8939L2 37.0001C2.71951 37.337 5 38.5957 5 39.0001C5 39.4044 5 41.1576 5 42.0001M4 31.0001V28.827C4 28.2855 4.12085 27.733 4.48452 27.3317C4.88436 26.8905 5.44523 26.5259 6 27.0001M6 27.0001V32.0001M6 27.0001C6.06941 26.4661 6.20152 25.606 7.06004 25.6766C7.67356 25.727 8 26.3845 8 27.0001V27.0001M8 32.0001C8 30.697 8 28.2613 8 27.0001M8 27.0001C8.27444 26.7655 8.79963 26.9395 9.41696 27.4474C9.81562 27.7755 10 28.2873 10 28.8036V29.0001M10 32.0001V29.0001M10 29.0001C10.2276 28.7407 10.8903 28.3933 11.6102 28.7417C11.8779 28.8713 12 29.1713 12 29.4687V31.0001C11.9593 33.064 11.7024 37.5957 11 38.0001V42.0001" stroke="#CB4E5D"/>
</svg>
