<svg width="39" height="39" viewBox="0 0 39 39" fill="none" xmlns="http://www.w3.org/2000/svg">
<path d="M29 7.92701V10C29 10.861 30.5742 11.138 32.056 11.1472C33.346 11.1553 34.5905 10.6837 35.6003 9.88092C37.7126 8.20176 38.3034 6.72851 38.2908 5.82744C38.2826 5.2466 37.6719 5.02968 37.1036 4.90917C35.5717 4.58429 34.6861 3.44218 34.2776 2.36876C33.9695 1.5592 33.4533 0.648036 32.6429 0.95382C31.9479 1.21606 31.2381 1.84126 30.6151 2.56745C29.361 4.02927 29 6.00094 29 7.92701Z" fill="#78BDDC"/>
<circle cx="16.5" cy="22.5" r="16" stroke="#78BDDC"/>
<circle cx="16" cy="23" r="9.5" stroke="#CB4E5D"/>
<path d="M29 10L19 20V21L30 11L29 10Z" fill="#CB4E5D"/>
<circle cx="16.5" cy="22.5" r="4.5" fill="#78BDDC"/>
</svg>
