<svg width="49" height="34" viewBox="0 0 49 34" fill="none" xmlns="http://www.w3.org/2000/svg">
<path d="M32.9999 6C36.7721 6.33014 43.7377 7.07918 38.9999 9C33.7335 11.1351 25.876 8.83867 29.911 11.6806C31.2477 12.6221 32.7859 13.2432 34.3061 13.8451C38.7415 15.6009 45.0837 18.8041 47.2907 22.3271C47.9351 23.3557 48.1898 24.9339 47.1129 25.4939C46.0862 26.0278 43.9974 25.8979 39.9999 24" stroke="#CB4E5D" stroke-linecap="round"/>
<path d="M39 20C34.571 14.7328 27.2077 13.2525 24 13C18.6111 22.4403 19.7805 27.9503 21.6857 30.6253C22.4209 31.6576 23.5906 32.3035 24.8408 32.5108C32.0347 33.7038 37.1359 25.0558 39 20Z" stroke="#CB4E5D"/>
<path d="M23 24C23.7059 25.8048 26.2941 29.0891 31 28C28.3333 30.1555 23 32.4155 23 24Z" fill="white" stroke="#CB4E5D"/>
<path d="M23 20C24.142 19.6311 26.7407 20.116 28 23C26.7963 23.2951 24.1111 22.7069 23 20Z" fill="white" stroke="#CB4E5D"/>
<path d="M29 23C30.142 22.6311 32.7407 23.116 34 26C32.7963 26.2951 30.1111 25.7069 29 23Z" fill="white" stroke="#CB4E5D"/>
<path d="M8.00003 7C8.10977 6.90008 7.86874 6.1096 8.00003 6M8.00003 6C10.3654 4.02538 16.8928 1 24 1C24.8162 3.87482 26.1113 10.0312 26 11C24.8314 10.4684 22.0463 9.84135 21 14C19.4696 13.9803 16.1781 15.0776 16 19C16.0093 18.8363 19.6661 15.5865 20 16C20.2672 16.3308 19.5287 20.2869 19 22C15.5497 20.0377 7.95551 13.782 8.00003 6Z" stroke="#78BDDC"/>
<path d="M13 14.0001C13.1554 12.786 14.213 10.5263 17 11.0001C16.8994 12.2931 15.9187 14.6634 13 14.0001Z" fill="white"/>
<path d="M19 9.00006C19.7772 8.0525 22.0469 6.72591 24 9.00006C23.1679 9.93775 20.8214 11.2505 19 9.00006Z" fill="white"/>
<path d="M13 14.0001C13.1554 12.786 14.213 10.5263 17 11.0001C16.8994 12.2931 15.9187 14.6634 13 14.0001Z" stroke="#78BDDC"/>
<path d="M19 9.00006C19.7772 8.0525 22.0469 6.72591 24 9.00006C23.1679 9.93775 20.8214 11.2505 19 9.00006Z" stroke="#78BDDC"/>
<path d="M7.00009 11C4.57377 12.2223 0.701964 14.4928 0.728406 16.3965C0.748227 17.8234 2.7062 18.1569 4.09928 18.4665L10.5386 19.8974C10.6963 19.9325 10.727 20.1449 10.5849 20.2218C7.26091 22.0189 1.49095 25.6216 2.00009 26C2.53115 26.3947 4.80525 25.3096 6.00009 25" stroke="#78BDDC" stroke-linecap="round"/>
</svg>
