<svg width="50" height="27" viewBox="0 0 50 27" fill="none" xmlns="http://www.w3.org/2000/svg">
<path d="M24.0224 8.22764C24.168 7.75846 24.832 7.75846 24.9776 8.22764L26.1616 12.0452C26.3563 12.6729 26.937 13.1008 27.5942 13.1008H31.5212C31.9999 13.1008 32.2049 13.7087 31.824 13.9987L28.5682 16.4768C28.0668 16.8584 27.8574 17.5128 28.044 18.1147L29.2686 22.0628C29.4127 22.5276 28.8754 22.9035 28.4882 22.6088L25.4085 20.2648C24.8717 19.8562 24.1283 19.8562 23.5915 20.2648L20.5118 22.6088C20.1246 22.9035 19.5873 22.5276 19.7314 22.0628L20.956 18.1147C21.1426 17.5128 20.9332 16.8584 20.4318 16.4768L17.176 13.9987C16.7951 13.7087 17.0001 13.1008 17.4788 13.1008H21.4058C22.063 13.1008 22.6437 12.6729 22.8384 12.0452L24.0224 8.22764Z" fill="white" stroke="#CB4E5D"/>
<path d="M39.0224 3.22764C39.168 2.75846 39.832 2.75846 39.9776 3.22764L41.1616 7.04516C41.3563 7.67292 41.937 8.10081 42.5942 8.10081H46.5212C46.9999 8.10081 47.2049 8.70874 46.824 8.99868L43.5682 11.4768C43.0668 11.8584 42.8574 12.5128 43.044 13.1147L44.2686 17.0628C44.4127 17.5276 43.8754 17.9035 43.4882 17.6088L40.4085 15.2648C39.8717 14.8562 39.1283 14.8562 38.5915 15.2648L35.5118 17.6088C35.1246 17.9035 34.5873 17.5276 34.7314 17.0628L35.956 13.1147C36.1426 12.5128 35.9332 11.8584 35.4318 11.4768L32.176 8.99867C31.7951 8.70874 32.0001 8.10081 32.4788 8.10081H36.4058C37.063 8.10081 37.6437 7.67292 37.8384 7.04516L39.0224 3.22764Z" fill="white" stroke="#78BDDC"/>
<path d="M10.0224 3.22764C10.168 2.75846 10.832 2.75846 10.9776 3.22764L12.1616 7.04516C12.3563 7.67292 12.937 8.10081 13.5942 8.10081H17.5212C17.9999 8.10081 18.2049 8.70874 17.824 8.99868L14.5682 11.4768C14.0668 11.8584 13.8574 12.5128 14.044 13.1147L15.2686 17.0628C15.4127 17.5276 14.8754 17.9035 14.4882 17.6088L11.4085 15.2648C10.8717 14.8562 10.1283 14.8562 9.59151 15.2648L6.51183 17.6088C6.12462 17.9035 5.58729 17.5276 5.73144 17.0628L6.95596 13.1147C7.14263 12.5128 6.93321 11.8584 6.43177 11.4768L3.17599 8.99867C2.79507 8.70874 3.00011 8.10081 3.47882 8.10081H7.40576C8.06302 8.10081 8.64373 7.67292 8.83844 7.04516L10.0224 3.22764Z" fill="white" stroke="#78BDDC"/>
</svg>
