<svg width="26" height="26" viewBox="0 0 26 26" fill="none" xmlns="http://www.w3.org/2000/svg">
<g opacity="0.9" clip-path="url(#clip0_81_693)">
<path d="M20 3C21.0343 3 21.2686 3.26861 22 4C22.7314 4.73139 23 5.96566 23 7V20C23 21.0343 22.7314 21.2686 22 22C21.2686 22.7314 21.0343 23 20 23H7C5.96566 23 4.73139 22.7314 4 22C3.26861 21.2686 3 21.0343 3 20V7C3 5.96566 3.26861 4.73139 4 4C4.73139 3.26861 5.96566 3 7 3H20ZM20 0H7C5.27609 0 3.21899 0.781013 2 2C0.781013 3.21899 0 5.27609 0 7V20C0 21.7239 0.781013 22.781 2 24C3.21899 25.219 5.27609 26 7 26H20C21.7239 26 22.781 25.219 24 24C25.219 22.781 26 21.7239 26 20V7C26 5.27609 25.219 3.21899 24 2C22.781 0.781013 21.7239 0 20 0Z" fill="black"/>
<path d="M13.9998 9.00002C14.8315 9.00637 15.3117 9.53281 15.9998 10C16.6879 10.4672 16.6871 11.2293 16.9998 12C17.3125 12.7707 18.1678 13.1855 17.9998 14C17.8318 14.8146 16.5919 16.416 15.9998 17C15.4077 17.5841 14.8166 17.8432 13.9998 18C13.183 18.1568 12.7661 17.3233 11.9998 17C11.2335 16.6768 10.4575 16.6944 9.99979 16C9.54206 15.3056 8.99474 13.8317 8.99979 13C9.00315 12.4471 9.78488 12.5095 9.99979 12C10.2147 11.4905 10.6061 10.3883 10.9998 10C11.3935 9.6117 11.4874 10.2079 11.9998 10C12.5122 9.79211 13.4468 8.99579 13.9998 9.00002ZM13.9998 7.00002C12.7207 6.99241 11.0665 7.29411 9.99979 8.00002C8.93306 8.70592 8.49281 9.8197 7.99979 11C7.50677 12.1803 6.75211 13.7451 6.99979 15C7.24747 16.255 8.0953 17.0955 8.99979 18C9.90428 18.9045 10.7449 19.7523 11.9998 20C13.2547 20.2477 14.8195 19.493 15.9998 19C17.1801 18.507 18.2939 18.0667 18.9998 17C19.7057 15.9333 20.0074 14.2791 19.9998 13C19.988 11.303 19.1998 10.2001 17.9998 9.00002C16.7998 7.79998 15.6969 7.01177 13.9998 7.00002Z" fill="black"/>
<path d="M20 8C20.8284 8 21 7.82843 21 7C21 6.17157 20.8284 5 20 5C19.1716 5 18 6.17157 18 7C18 7.82843 19.1716 8 20 8Z" fill="black"/>
</g>
<defs>
<clipPath id="clip0_81_693">
<rect width="26" height="26" fill="white"/>
</clipPath>
</defs>
</svg>
