<?xml version="1.0" encoding="utf-8"?>
<!-- Generator: Adobe Illustrator 26.5.0, SVG Export Plug-In . SVG Version: 6.00 Build 0)  -->
<svg version="1.1" id="Слой_1" xmlns="http://www.w3.org/2000/svg" xmlns:xlink="http://www.w3.org/1999/xlink" x="0px" y="0px"
	 viewBox="0 0 500 500" style="enable-background:new 0 0 500 500;" xml:space="preserve">
<style type="text/css">
	.st0{fill:#CB4E5E;}
</style>
<g>
	<g>
		<g>
			<g>
				<path class="st0" d="M27.4,275.66L27.4,275.66c-1.76-2.41-1.23-5.79,1.17-7.55l2.15-1.57c0.96-0.7,2.08-1.04,3.18-1.04
					c1.67,0,3.31,0.77,4.37,2.22h0c1.76,2.41,1.23,5.79-1.17,7.55l-2.15,1.57c-0.96,0.7-2.08,1.04-3.18,1.04
					C30.1,277.87,28.46,277.1,27.4,275.66z"/>
			</g>
			<g>
				<path class="st0" d="M38.11,290.01L38.11,290.01c-1.61-2.21-1.13-5.3,1.08-6.92l5.72-4.25c0.88-0.64,1.9-0.95,2.92-0.95
					c1.53,0,3.03,0.7,4,2.03l0,0c1.61,2.21,1.13,5.3-1.08,6.92l-0.47,0.35c-0.36,0.2-0.71,0.43-1.05,0.68l-0.04,0.03l-0.04,0.03
					l-4.3,3.25c-0.08,0.06-0.15,0.12-0.23,0.18c-0.78,0.46-1.65,0.69-2.51,0.69C40.59,292.04,39.08,291.33,38.11,290.01z"/>
			</g>
			<g>
				<path class="st0" d="M47.27,302.77L47.27,302.77c-1.53-2.1-1.17-5,0.77-6.67c0.15-0.1,0.3-0.2,0.44-0.3l0.02-0.01l0.02-0.01
					l4.9-3.64c0.69-0.34,1.44-0.51,2.18-0.51c1.53,0,3.03,0.7,4,2.03c1.61,2.21,1.13,5.3-1.08,6.92l-4.33,3.28
					c-0.88,0.64-1.9,0.95-2.92,0.95C49.74,304.8,48.24,304.09,47.27,302.77z"/>
			</g>
			<g>
				<path class="st0" d="M67.48,314.64l-1.7,1.43c-0.88,0.64-1.9,0.95-2.92,0.95c-1.53,0-3.03-0.7-4-2.03
					c-1.61-2.21-1.13-5.3,1.08-6.92l1.7-1.43c0.88-0.64,1.9-0.95,2.92-0.95c1.53,0,3.03,0.7,4,2.03
					C70.17,309.93,69.68,313.03,67.48,314.64z"/>
			</g>
			<g>
				<path class="st0" d="M81.67,242.13l5.46-3.72l5.94-4.31c2.2-1.6,5.24-1.17,6.91,0.98l28.44,36.5c0.48,0.62,1.1,1.13,1.83,1.43
					c1.05,0.44,2.49,0.56,3.45-1.23c4.76-8.89,7.49-18.59,7.49-29.73c0-16.74-5.91-32.1-16.6-43.34L72.5,233.93
					c-0.66,0.45-1.18,1.08-1.49,1.82l-8.48,21.32c-0.07,0.27-0.07,0.62-0.01,0.7c0.05,0.08,0.5,0.38,1.73,0.47
					c4.48,0.32,9.82-0.08,12.22-5.97c0.24-0.59,0.47-1.16,0.69-1.7l-0.02-0.04l2.45-5.88C80.03,243.63,80.75,242.75,81.67,242.13z"
					/>
			</g>
			<g>
				<path class="st0" d="M125.63,278.08l-29.82-38.42l-8.27,6c-1.56,1.13-2.79,2.68-3.55,4.46c-0.53,1.25-1.15,2.74-1.85,4.45
					c-2.9,7.15-9.77,10.88-18.83,10.23c-3.75-0.27-5.57-1.91-6.43-3.24c-1.76-2.72-0.73-5.77-0.61-6.11l0.05-0.12l9.52-23.05
					c0.45-1.1,1.22-2.04,2.2-2.71l52-35.2c-11.16-9.61-25.74-15.36-41.66-15.16c-34.8,0.43-62.42,28.84-61.89,63.65
					c0.12,8.05,1.41,16.95,5.64,21.77c1.31-0.78,2.13-1.68,3.4-2.62l2.15-1.57c2.18-1.59,3.53-2.17,6.23-2.17
					c4.02,0,7.83,1.94,10.2,5.18c1.9,2.61,2.66,5.7,2.36,8.69c0.44-0.05,0.89-0.08,1.34-0.08h0h0c3.43,0,6.69,1.65,8.71,4.42
					c2.1,2.87,2.57,6.45,1.57,9.61c2.46,0.59,4.68,2.04,6.2,4.12c2.13,2.91,2.58,6.54,1.53,9.73c2.95,0.36,5.66,1.92,7.43,4.35
					c1.7,2.33,2.39,5.18,1.95,8.02c-0.2,1.31-0.64,2.55-1.28,3.68l0.12,0.27l2.09,2.6c1.99,2.48,5.62,2.88,8.1,0.88h0
					c2.44-1.96,2.87-5.5,0.98-7.99l-24.6-32.34c-1.08-1.42-0.78-3.46,0.67-4.51c1.42-1.04,3.43-0.66,4.5,0.74l25.78,34.04
					c1.79,2.36,5.13,2.85,7.52,1.11l0.16-0.11c2.46-1.79,2.97-5.24,1.14-7.66l-25.58-33.82c-1.08-1.42-0.78-3.46,0.67-4.51
					c1.42-1.04,3.43-0.66,4.49,0.74l26.45,35.02c1.55,2.05,4.4,2.57,6.58,1.21l0.72-0.45c2.46-1.54,3.08-4.85,1.34-7.17
					l-26.65-35.64c-1.08-1.42-0.78-3.46,0.67-4.51c1.42-1.04,3.43-0.66,4.49,0.74l22.99,30.5c1.98,2.62,5.77,3,8.24,0.83
					c0.04-0.04,0.09-0.08,0.13-0.11C127.15,283.83,127.47,280.44,125.63,278.08z"/>
			</g>
		</g>
		<g>
			<g>
				<path class="st0" d="M212.5,224.08c4.06-2.3,6.12-5.71,6.12-10.13c0-3.15-1.06-5.81-3.15-7.9c-2.74-2.74-6.83-4.13-12.14-4.13
					h-20.78v46.25h21.43c5.21,0,9.42-1.12,12.5-3.32c3.11-2.22,4.69-5.42,4.69-9.5C221.17,229.99,218.25,226.2,212.5,224.08z
					 M207.84,219.63c-1.49,1.03-3.56,1.55-6.14,1.55h-10.69v-11.58h11.27c2.49,0,4.44,0.5,5.77,1.48c1.33,0.98,1.98,2.3,1.98,4.05
					C210.03,217.13,209.32,218.61,207.84,219.63z M210.38,238.92c-1.49,1.05-3.62,1.58-6.33,1.58h-13.04v-11.97h12.45
					c6.14,0,9.12,1.92,9.12,5.86C212.58,236.39,211.86,237.87,210.38,238.92z"/>
				<path class="st0" d="M246.15,212.43c-5.27,0-9.75,1.8-13.32,5.34c-3.56,3.54-5.37,7.9-5.37,12.96c0,5.06,1.78,9.41,5.3,12.93
					c3.52,3.52,7.98,5.3,13.25,5.3c5.32,0,9.82-1.8,13.38-5.34c3.56-3.54,5.37-7.88,5.37-12.89c0-5.1-1.8-9.47-5.34-12.99
					C255.89,214.21,251.42,212.43,246.15,212.43z M253.51,238.44c-1.85,2.06-4.33,3.11-7.36,3.11c-2.91,0-5.37-1.07-7.3-3.17
					c-1.94-2.11-2.93-4.68-2.93-7.64c0-3.05,0.94-5.64,2.8-7.71c1.85-2.06,4.31-3.11,7.3-3.11c2.95,0,5.43,1.06,7.37,3.14
					c1.94,2.09,2.93,4.67,2.93,7.68C256.31,233.77,255.37,236.37,253.51,238.44z"/>
				<path class="st0" d="M309.99,248.95c5.19,0,9.57-1.76,13.03-5.24c3.45-3.48,5.2-7.71,5.2-12.6c0-4.75-1.66-8.83-4.95-12.11
					c-3.28-3.28-7.25-4.95-11.78-4.95c-3.34,0-6.19,0.66-8.46,1.96c-1.85,1.06-3.31,2.29-4.37,3.67c0.33-1.96,1.05-3.65,2.15-5.01
					c1.3-1.62,3.51-2.76,6.57-3.4l19.07-4.17l-1.42-6.88l-19.07,3.97c-2.06,0.44-3.9,1.1-5.46,1.95c-1.57,0.86-2.87,1.94-3.87,3.2
					c-0.99,1.25-1.81,2.58-2.45,3.94c-0.64,1.37-1.12,2.99-1.42,4.8c-0.31,1.81-0.52,3.51-0.62,5.05c-0.11,1.53-0.16,3.35-0.16,5.4
					c0,6.39,1.61,11.44,4.77,15C299.9,247.14,304.36,248.95,309.99,248.95z M309.99,220.89c2.73,0,5.07,1.01,6.94,3.01
					c1.88,2.01,2.83,4.48,2.83,7.35c0,2.92-0.91,5.39-2.7,7.35c-1.79,1.95-4.12,2.94-6.94,2.94c-2.73,0-5.06-1-6.91-2.98
					c-1.86-1.98-2.8-4.44-2.8-7.32c0-2.92,0.91-5.4,2.7-7.38C304.9,221.89,307.21,220.89,309.99,220.89z"/>
				<path class="st0" d="M346.77,240.99c0.63-2.01,1.15-4.77,1.55-8.21c0.38-3.36,0.58-7.49,0.59-12.28h10.21v27.68h8.46v-35.02
					h-26.6v0.28c0,5.1-0.11,9.48-0.33,13c-0.22,3.52-0.5,6.29-0.84,8.23c-0.34,1.92-0.83,3.41-1.43,4.44
					c-0.6,1.01-1.17,1.64-1.7,1.88c-0.55,0.24-1.27,0.37-2.14,0.37c-0.8,0-1.55-0.09-2.22-0.25l-0.32-0.08l-0.64,7.04l0.26,0.04
					c1.84,0.31,3.41,0.46,4.68,0.46c1.71,0,3.17-0.18,4.33-0.53c1.17-0.36,2.34-1.12,3.48-2.26
					C345.23,244.64,346.13,243.03,346.77,240.99z"/>
				<path class="st0" d="M389.42,226.27c-4.22,0-7.68,0.99-10.28,2.93c-2.63,1.96-3.96,4.87-3.96,8.64c0,3.47,1.23,6.21,3.66,8.15
					c2.41,1.93,5.4,2.9,8.89,2.9c4.45,0,8.11-1.51,10.88-4.5v3.78H407v-20.71c0-4.71-1.31-8.4-3.9-10.97
					c-2.59-2.57-6.46-3.87-11.52-3.87c-4.5,0-8.95,0.97-13.24,2.9l-0.23,0.1l2.33,6.85l0.28-0.12c3.39-1.42,6.67-2.13,9.75-2.13
					c2.66,0,4.72,0.61,6.12,1.83c1.39,1.2,2.09,2.98,2.09,5.27v0.27C395.76,226.72,392.65,226.27,389.42,226.27z M396.34,240.43
					c-1.66,1.3-3.81,1.96-6.39,1.96c-1.85,0-3.4-0.44-4.6-1.32c-1.2-0.87-1.78-2.01-1.78-3.49c0-1.66,0.64-2.91,1.97-3.82
					c1.34-0.92,3.24-1.39,5.65-1.39c2.79,0,5.36,0.43,7.62,1.28v1.77C398.81,237.46,397.97,239.14,396.34,240.43z"/>
				<polygon class="st0" points="416.43,248.17 424.89,248.17 424.89,220.5 441.4,220.5 441.4,213.15 416.43,213.15 				"/>
				<path class="st0" d="M477.77,217.73c-3.54-3.52-8.01-5.3-13.28-5.3c-5.27,0-9.75,1.8-13.32,5.34c-3.56,3.54-5.37,7.9-5.37,12.96
					c0,5.06,1.78,9.41,5.3,12.93c3.52,3.52,7.98,5.3,13.25,5.3c5.32,0,9.82-1.8,13.38-5.34c3.56-3.54,5.37-7.88,5.37-12.89
					C483.11,225.62,481.32,221.25,477.77,217.73z M471.85,238.44c-1.85,2.06-4.33,3.11-7.36,3.11c-2.91,0-5.36-1.07-7.3-3.17
					c-1.94-2.11-2.93-4.68-2.93-7.64c0-3.05,0.94-5.64,2.8-7.71c1.85-2.06,4.31-3.11,7.3-3.11c2.95,0,5.43,1.06,7.37,3.14
					c1.94,2.09,2.93,4.67,2.93,7.68C474.65,233.77,473.71,236.37,471.85,238.44z"/>
				<path class="st0" d="M206.18,288.66c3.36-1.71,5.06-4.35,5.06-7.84c0-2.73-1.08-4.93-3.21-6.52c-2.11-1.57-4.94-2.37-8.42-2.37
					h-17.97v35.02h18.16c3.96,0,7.14-0.85,9.47-2.53c2.35-1.7,3.54-4.08,3.54-7.08C212.81,293.04,210.58,290.13,206.18,288.66z
					 M189.97,292.07h8.27c1.98,0,3.49,0.36,4.51,1.06c1,0.69,1.48,1.62,1.48,2.84c0,1.27-0.47,2.25-1.43,3.01
					c-0.97,0.76-2.37,1.15-4.17,1.15h-8.66V292.07z M201.39,285.05c-0.86,0.73-2.07,1.11-3.6,1.11h-7.82v-7.6h7.95
					c1.62,0,2.83,0.34,3.6,1.01c0.77,0.67,1.14,1.53,1.14,2.63C202.66,283.38,202.24,284.31,201.39,285.05z"/>
				<polygon class="st0" points="239.62,287.7 229,271.93 220.74,271.93 220.74,306.95 229,306.95 229,284.71 239.49,299.65 
					250.05,284.58 250.05,306.95 258.57,306.95 258.57,271.93 250.31,271.93 				"/>
				<path class="st0" d="M283.75,271.21c-4.93,0-9.06,1.79-12.28,5.31c-3.21,3.52-4.84,7.87-4.84,12.92c0,5.36,1.73,9.8,5.14,13.19
					c3.41,3.39,7.73,5.11,12.83,5.11c5.89,0,10.71-2.21,14.31-6.56l0.17-0.21l-5.03-4.46l-0.19,0.18c-2.76,2.68-5.84,4.03-9.14,4.03
					c-2.53,0-4.69-0.76-6.41-2.25c-1.66-1.43-2.72-3.43-3.18-5.94h25.23l0.04-0.23c0.09-0.53,0.14-1.3,0.14-2.27
					c0-5.31-1.48-9.81-4.4-13.39C293.2,273.03,289.03,271.21,283.75,271.21z M277.88,280.65c1.55-1.61,3.5-2.43,5.8-2.43
					c2.43,0,4.4,0.83,5.86,2.45c1.42,1.58,2.28,3.62,2.57,6.06h-17.06C275.43,284.26,276.38,282.21,277.88,280.65z"/>
				<path class="st0" d="M333.87,296.1c-2.72,2.8-5.66,4.22-8.74,4.22c-2.91,0-5.33-1.05-7.2-3.11c-1.88-2.07-2.83-4.66-2.83-7.71
					v-0.13c0-2.96,0.93-5.51,2.77-7.58c1.83-2.06,4.14-3.1,6.87-3.1c3.13,0,6.07,1.42,8.74,4.22l0.21,0.21l5.27-5.69l-0.17-0.19
					c-3.65-4-8.35-6.03-13.98-6.03c-5.15,0-9.51,1.81-12.96,5.37c-3.45,3.56-5.2,7.91-5.2,12.92v0.13c0,5.01,1.74,9.33,5.17,12.83
					c3.43,3.5,7.78,5.27,12.93,5.27c3.16,0,5.89-0.57,8.12-1.69c2.22-1.12,4.3-2.76,6.19-4.86l0.18-0.2l-5.15-5.09L333.87,296.1z"/>
				<polygon class="st0" points="342.35,279.27 353.44,279.27 353.44,306.95 361.96,306.95 361.96,279.27 373.06,279.27 
					373.06,271.93 342.35,271.93 				"/>
				<path class="st0" d="M394.58,271.21c-4.93,0-9.06,1.79-12.28,5.31c-3.21,3.52-4.84,7.87-4.84,12.92c0,5.36,1.73,9.8,5.14,13.19
					c3.41,3.39,7.72,5.11,12.83,5.11c5.89,0,10.71-2.21,14.31-6.56l0.17-0.21l-5.03-4.46l-0.19,0.18c-2.76,2.68-5.84,4.03-9.14,4.03
					c-2.53,0-4.69-0.76-6.41-2.25c-1.65-1.43-2.72-3.43-3.18-5.94h25.23l0.04-0.23c0.09-0.54,0.13-1.3,0.13-2.27
					c0-5.31-1.48-9.81-4.4-13.39C404.04,273.03,399.87,271.21,394.58,271.21z M388.71,280.65c1.55-1.61,3.5-2.43,5.8-2.43
					c2.43,0,4.4,0.83,5.86,2.45c1.42,1.58,2.28,3.62,2.57,6.06H385.9C386.27,284.26,387.22,282.21,388.71,280.65z"/>
			</g>
		</g>
	</g>
</g>
</svg>
