<?xml version="1.0" encoding="utf-8"?>
<!-- Generator: Adobe Illustrator 26.5.0, SVG Export Plug-In . SVG Version: 6.00 Build 0)  -->
<svg version="1.1" id="Слой_1" xmlns="http://www.w3.org/2000/svg" xmlns:xlink="http://www.w3.org/1999/xlink" x="0px" y="0px"
	 viewBox="0 0 150 68" enable-background="new 0 0 150 68" xml:space="preserve">
<g>
	<g>
		<g>
			<g>
				<path fill="#CB4E5E" d="M8.62,41.16L8.62,41.16c-0.54-0.74-0.38-1.77,0.36-2.31l0.66-0.48c0.29-0.21,0.64-0.32,0.97-0.32
					c0.51,0,1.01,0.23,1.34,0.68h0c0.54,0.74,0.38,1.77-0.36,2.31l-0.66,0.48c-0.29,0.21-0.64,0.32-0.97,0.32
					C9.44,41.84,8.94,41.6,8.62,41.16z"/>
			</g>
			<g>
				<path fill="#CB4E5E" d="M11.89,45.55L11.89,45.55c-0.49-0.68-0.35-1.62,0.33-2.12l1.75-1.3c0.27-0.2,0.58-0.29,0.89-0.29
					c0.47,0,0.93,0.22,1.22,0.62v0c0.49,0.68,0.35,1.62-0.33,2.12l-0.14,0.11c-0.11,0.06-0.22,0.13-0.32,0.21l-0.01,0.01l-0.01,0.01
					l-1.31,0.99c-0.02,0.02-0.05,0.04-0.07,0.05c-0.24,0.14-0.5,0.21-0.77,0.21C12.65,46.17,12.19,45.95,11.89,45.55z"/>
			</g>
			<g>
				<path fill="#CB4E5E" d="M14.69,49.45L14.69,49.45c-0.47-0.64-0.36-1.53,0.23-2.04c0.05-0.03,0.09-0.06,0.13-0.09l0.01,0l0.01,0
					l1.5-1.11c0.21-0.1,0.44-0.16,0.67-0.16c0.47,0,0.93,0.22,1.22,0.62c0.49,0.68,0.35,1.62-0.33,2.12l-1.32,1
					c-0.27,0.2-0.58,0.29-0.89,0.29C15.45,50.07,14.99,49.86,14.69,49.45z"/>
			</g>
			<g>
				<path fill="#CB4E5E" d="M20.87,53.08l-0.52,0.44c-0.27,0.2-0.58,0.29-0.89,0.29c-0.47,0-0.93-0.22-1.22-0.62
					c-0.49-0.68-0.35-1.62,0.33-2.12l0.52-0.44c0.27-0.2,0.58-0.29,0.89-0.29c0.47,0,0.93,0.22,1.22,0.62
					C21.7,51.64,21.55,52.59,20.87,53.08z"/>
			</g>
			<g>
				<path fill="#CB4E5E" d="M25.21,30.9l1.67-1.14l1.82-1.32c0.67-0.49,1.6-0.36,2.11,0.3l8.7,11.16c0.15,0.19,0.34,0.34,0.56,0.44
					c0.32,0.13,0.76,0.17,1.05-0.38c1.45-2.72,2.29-5.69,2.29-9.09c0-5.12-1.81-9.82-5.08-13.26L22.41,28.4
					c-0.2,0.14-0.36,0.33-0.45,0.56l-2.59,6.52c-0.02,0.08-0.02,0.19,0,0.21c0.02,0.02,0.15,0.12,0.53,0.14
					c1.37,0.1,3-0.02,3.74-1.83c0.07-0.18,0.14-0.35,0.21-0.52l0-0.01l0.75-1.8C24.72,31.36,24.93,31.1,25.21,30.9z"/>
			</g>
			<g>
				<path fill="#CB4E5E" d="M38.66,41.9l-9.12-11.75l-2.53,1.84c-0.48,0.35-0.85,0.82-1.09,1.36c-0.16,0.38-0.35,0.84-0.56,1.36
					c-0.89,2.19-2.99,3.33-5.76,3.13c-1.15-0.08-1.7-0.58-1.97-0.99c-0.54-0.83-0.22-1.77-0.19-1.87l0.01-0.04l2.91-7.05
					c0.14-0.34,0.37-0.62,0.67-0.83L36.95,16.3c-3.41-2.94-7.87-4.7-12.74-4.64C13.57,11.79,5.12,20.48,5.28,31.13
					c0.04,2.46,0.43,5.19,1.73,6.66c0.4-0.24,0.65-0.52,1.04-0.8L8.7,36.5c0.67-0.49,1.08-0.66,1.9-0.66c1.23,0,2.4,0.59,3.12,1.58
					c0.58,0.8,0.81,1.74,0.72,2.66c0.14-0.02,0.27-0.03,0.41-0.03h0h0c1.05,0,2.05,0.51,2.67,1.35c0.64,0.88,0.78,1.97,0.48,2.94
					c0.75,0.18,1.43,0.63,1.89,1.26c0.65,0.89,0.79,2,0.47,2.98c0.9,0.11,1.73,0.59,2.27,1.33c0.52,0.71,0.73,1.58,0.6,2.45
					c-0.06,0.4-0.2,0.78-0.39,1.12l0.04,0.08l0.64,0.79c0.61,0.76,1.72,0.88,2.48,0.27l0,0c0.75-0.6,0.88-1.68,0.3-2.44l-7.52-9.89
					c-0.33-0.44-0.24-1.06,0.2-1.38c0.44-0.32,1.05-0.2,1.37,0.23l7.89,10.41c0.55,0.72,1.57,0.87,2.3,0.34l0.05-0.03
					c0.75-0.55,0.91-1.6,0.35-2.34l-7.82-10.35c-0.33-0.44-0.24-1.06,0.2-1.38c0.44-0.32,1.05-0.2,1.37,0.23l8.09,10.71
					c0.47,0.63,1.35,0.79,2.01,0.37l0.22-0.14c0.75-0.47,0.94-1.48,0.41-2.19l-8.15-10.9c-0.33-0.44-0.24-1.06,0.2-1.38
					c0.44-0.32,1.05-0.2,1.37,0.23l7.03,9.33c0.61,0.8,1.77,0.92,2.52,0.26c0.01-0.01,0.03-0.02,0.04-0.03
					C39.13,43.66,39.22,42.62,38.66,41.9z"/>
			</g>
		</g>
		<g>
			<g>
				<path fill="#CB4E5E" d="M65.23,25.38c1.24-0.7,1.87-1.75,1.87-3.1c0-0.96-0.32-1.78-0.96-2.42c-0.84-0.84-2.09-1.26-3.71-1.26
					h-6.35v14.15h6.55c1.59,0,2.88-0.34,3.82-1.01c0.95-0.68,1.43-1.66,1.43-2.9C67.88,27.19,66.99,26.03,65.23,25.38z M63.81,24.02
					c-0.46,0.31-1.09,0.47-1.88,0.47h-3.27v-3.54h3.45c0.76,0,1.36,0.15,1.77,0.45c0.41,0.3,0.6,0.7,0.6,1.24
					C64.48,23.26,64.26,23.71,63.81,24.02z M64.58,29.92c-0.45,0.32-1.11,0.48-1.94,0.48h-3.99v-3.66h3.81
					c1.88,0,2.79,0.59,2.79,1.79C65.26,29.15,65.04,29.6,64.58,29.92z"/>
				<path fill="#CB4E5E" d="M75.52,21.82c-1.61,0-2.98,0.55-4.07,1.63c-1.09,1.08-1.64,2.42-1.64,3.96c0,1.55,0.55,2.88,1.62,3.95
					c1.08,1.08,2.44,1.62,4.05,1.62c1.63,0,3-0.55,4.09-1.63c1.09-1.08,1.64-2.41,1.64-3.94c0-1.56-0.55-2.9-1.63-3.97
					C78.5,22.37,77.14,21.82,75.52,21.82z M77.78,29.78c-0.57,0.63-1.32,0.95-2.25,0.95c-0.89,0-1.64-0.33-2.23-0.97
					c-0.59-0.65-0.9-1.43-0.9-2.34c0-0.93,0.29-1.73,0.86-2.36c0.57-0.63,1.32-0.95,2.23-0.95c0.9,0,1.66,0.32,2.25,0.96
					c0.59,0.64,0.9,1.43,0.9,2.35C78.63,28.35,78.34,29.14,77.78,29.78z"/>
				<path fill="#CB4E5E" d="M95.05,32.99c1.59,0,2.93-0.54,3.98-1.6c1.06-1.06,1.59-2.36,1.59-3.85c0-1.45-0.51-2.7-1.51-3.7
					c-1-1-2.22-1.51-3.6-1.51c-1.02,0-1.89,0.2-2.59,0.6c-0.57,0.32-1.01,0.7-1.34,1.12c0.1-0.6,0.32-1.11,0.66-1.53
					c0.4-0.49,1.07-0.84,2.01-1.04l5.83-1.28l-0.43-2.1l-5.83,1.22c-0.63,0.13-1.19,0.34-1.67,0.6c-0.48,0.26-0.88,0.59-1.18,0.98
					c-0.3,0.38-0.55,0.79-0.75,1.2c-0.2,0.42-0.34,0.91-0.44,1.47c-0.09,0.55-0.16,1.07-0.19,1.55c-0.03,0.47-0.05,1.03-0.05,1.65
					c0,1.96,0.49,3.5,1.46,4.59C91.96,32.44,93.33,32.99,95.05,32.99z M95.05,24.41c0.84,0,1.55,0.31,2.12,0.92
					c0.57,0.61,0.87,1.37,0.87,2.25c0,0.89-0.28,1.65-0.83,2.25c-0.55,0.6-1.26,0.9-2.12,0.9c-0.84,0-1.55-0.31-2.11-0.91
					c-0.57-0.61-0.86-1.36-0.86-2.24c0-0.89,0.28-1.65,0.83-2.26C93.49,24.71,94.2,24.41,95.05,24.41z"/>
				<path fill="#CB4E5E" d="M106.3,30.56c0.19-0.61,0.35-1.46,0.47-2.51c0.12-1.03,0.18-2.29,0.18-3.76h3.12v8.46h2.59V22.04h-8.14
					v0.09c0,1.56-0.03,2.9-0.1,3.98c-0.07,1.08-0.15,1.92-0.26,2.52c-0.1,0.59-0.25,1.04-0.44,1.36c-0.18,0.31-0.36,0.5-0.52,0.57
					c-0.17,0.07-0.39,0.11-0.65,0.11c-0.25,0-0.47-0.03-0.68-0.08l-0.1-0.02l-0.2,2.15l0.08,0.01c0.56,0.09,1.04,0.14,1.43,0.14
					c0.52,0,0.97-0.06,1.32-0.16c0.36-0.11,0.72-0.34,1.06-0.69C105.83,31.67,106.1,31.18,106.3,30.56z"/>
				<path fill="#CB4E5E" d="M119.35,26.05c-1.29,0-2.35,0.3-3.15,0.9c-0.8,0.6-1.21,1.49-1.21,2.64c0,1.06,0.38,1.9,1.12,2.49
					c0.74,0.59,1.65,0.89,2.72,0.89c1.36,0,2.48-0.46,3.33-1.38v1.16h2.57v-6.33c0-1.44-0.4-2.57-1.19-3.35
					c-0.79-0.78-1.98-1.18-3.52-1.18c-1.38,0-2.74,0.3-4.05,0.89l-0.07,0.03l0.71,2.1l0.08-0.04c1.04-0.43,2.04-0.65,2.98-0.65
					c0.81,0,1.44,0.19,1.87,0.56c0.42,0.37,0.64,0.91,0.64,1.61v0.08C121.28,26.19,120.33,26.05,119.35,26.05z M121.46,30.38
					c-0.51,0.4-1.17,0.6-1.95,0.6c-0.56,0-1.04-0.14-1.41-0.4c-0.37-0.26-0.54-0.61-0.54-1.07c0-0.51,0.2-0.89,0.6-1.17
					c0.41-0.28,0.99-0.42,1.73-0.42c0.85,0,1.64,0.13,2.33,0.39v0.54C122.21,29.48,121.96,29.99,121.46,30.38z"/>
				<polygon fill="#CB4E5E" points="127.6,32.75 130.19,32.75 130.19,24.29 135.24,24.29 135.24,22.04 127.6,22.04 				"/>
				<path fill="#CB4E5E" d="M146.37,23.44c-1.08-1.08-2.45-1.62-4.06-1.62c-1.61,0-2.98,0.55-4.07,1.63
					c-1.09,1.08-1.64,2.42-1.64,3.96c0,1.55,0.55,2.88,1.62,3.95c1.08,1.08,2.44,1.62,4.05,1.62c1.63,0,3-0.55,4.09-1.63
					c1.09-1.08,1.64-2.41,1.64-3.94C148,25.86,147.45,24.52,146.37,23.44z M144.56,29.78c-0.57,0.63-1.32,0.95-2.25,0.95
					c-0.89,0-1.64-0.33-2.23-0.97c-0.59-0.65-0.9-1.43-0.9-2.34c0-0.93,0.29-1.73,0.86-2.36c0.57-0.63,1.32-0.95,2.23-0.95
					c0.9,0,1.66,0.32,2.25,0.96c0.59,0.64,0.9,1.43,0.9,2.35C145.41,28.35,145.13,29.14,144.56,29.78z"/>
				<path fill="#CB4E5E" d="M63.3,45.14c1.03-0.52,1.55-1.33,1.55-2.4c0-0.84-0.33-1.51-0.98-1.99c-0.64-0.48-1.51-0.73-2.58-0.73
					h-5.5v10.71h5.56c1.21,0,2.18-0.26,2.9-0.78c0.72-0.52,1.08-1.25,1.08-2.17C65.33,46.48,64.65,45.59,63.3,45.14z M58.34,46.18
					h2.53c0.6,0,1.07,0.11,1.38,0.32c0.3,0.21,0.45,0.5,0.45,0.87c0,0.39-0.14,0.69-0.44,0.92c-0.3,0.23-0.73,0.35-1.28,0.35h-2.65
					V46.18z M61.83,44.03c-0.26,0.22-0.63,0.34-1.1,0.34h-2.39v-2.32h2.43c0.5,0,0.87,0.1,1.1,0.31c0.24,0.2,0.35,0.47,0.35,0.8
					C62.22,43.52,62.09,43.81,61.83,44.03z"/>
				<polygon fill="#CB4E5E" points="73.53,44.84 70.28,40.02 67.75,40.02 67.75,50.73 70.28,50.73 70.28,43.93 73.49,48.5 
					76.72,43.89 76.72,50.73 79.32,50.73 79.32,40.02 76.8,40.02 				"/>
				<path fill="#CB4E5E" d="M87.02,39.8c-1.51,0-2.77,0.55-3.76,1.62c-0.98,1.08-1.48,2.41-1.48,3.95c0,1.64,0.53,3,1.57,4.03
					c1.04,1.04,2.36,1.56,3.92,1.56c1.8,0,3.27-0.68,4.38-2.01l0.05-0.06l-1.54-1.37l-0.06,0.06c-0.85,0.82-1.79,1.23-2.8,1.23
					c-0.77,0-1.43-0.23-1.96-0.69c-0.51-0.44-0.83-1.05-0.97-1.82h7.72l0.01-0.07c0.03-0.16,0.04-0.4,0.04-0.69
					c0-1.62-0.45-3-1.35-4.1C89.91,40.36,88.64,39.8,87.02,39.8z M85.23,42.69c0.47-0.49,1.07-0.74,1.78-0.74
					c0.74,0,1.35,0.25,1.79,0.75c0.43,0.48,0.7,1.11,0.79,1.85h-5.22C84.48,43.79,84.77,43.17,85.23,42.69z"/>
				<path fill="#CB4E5E" d="M102.35,47.41c-0.83,0.86-1.73,1.29-2.67,1.29c-0.89,0-1.63-0.32-2.2-0.95
					c-0.57-0.63-0.87-1.43-0.87-2.36v-0.04c0-0.91,0.29-1.69,0.85-2.32c0.56-0.63,1.27-0.95,2.1-0.95c0.96,0,1.86,0.43,2.67,1.29
					l0.06,0.07l1.61-1.74l-0.05-0.06c-1.12-1.22-2.56-1.84-4.28-1.84c-1.57,0-2.91,0.55-3.96,1.64c-1.06,1.09-1.59,2.42-1.59,3.95
					v0.04c0,1.53,0.53,2.85,1.58,3.92c1.05,1.07,2.38,1.61,3.95,1.61c0.97,0,1.8-0.17,2.48-0.52c0.68-0.34,1.32-0.84,1.89-1.49
					l0.05-0.06l-1.58-1.56L102.35,47.41z"/>
				<polygon fill="#CB4E5E" points="104.95,42.27 108.34,42.27 108.34,50.73 110.95,50.73 110.95,42.27 114.34,42.27 114.34,40.02 
					104.95,40.02 				"/>
				<path fill="#CB4E5E" d="M120.92,39.8c-1.51,0-2.77,0.55-3.76,1.62c-0.98,1.08-1.48,2.41-1.48,3.95c0,1.64,0.53,3,1.57,4.03
					c1.04,1.04,2.36,1.56,3.92,1.56c1.8,0,3.27-0.68,4.38-2.01l0.05-0.06l-1.54-1.37l-0.06,0.06c-0.84,0.82-1.79,1.23-2.8,1.23
					c-0.77,0-1.43-0.23-1.96-0.69c-0.51-0.44-0.83-1.05-0.97-1.82h7.72l0.01-0.07c0.03-0.16,0.04-0.4,0.04-0.69
					c0-1.62-0.45-3-1.35-4.1C123.81,40.36,122.54,39.8,120.92,39.8z M119.13,42.69c0.47-0.49,1.07-0.74,1.77-0.74
					c0.74,0,1.35,0.25,1.79,0.75c0.43,0.48,0.7,1.11,0.79,1.85h-5.22C118.38,43.79,118.67,43.17,119.13,42.69z"/>
			</g>
		</g>
	</g>
</g>
<g>
</g>
<g>
</g>
<g>
</g>
<g>
</g>
<g>
</g>
<g>
</g>
<g>
</g>
<g>
</g>
<g>
</g>
<g>
</g>
<g>
</g>
<g>
</g>
<g>
</g>
<g>
</g>
<g>
</g>
</svg>
