<svg width="26" height="26" viewBox="0 0 26 26" fill="none" xmlns="http://www.w3.org/2000/svg">
<path d="M19 6.99999L6.00004 12C5.05264 12.3376 5.23194 12.7909 6.00004 13L9.00004 14L17 8.99999C17.2929 8.76934 17.39 8.78948 17 8.99999L11 15V18C10.798 18.173 11.3602 18 11 18L13 16L16 19C16.664 19.3244 17.8348 18.7031 18 18L20 7.99999C20.242 7.13922 19.6335 6.74572 19 6.99999Z" fill="black"/>
<path d="M20 3C22.145 3 23 4.855 23 7V20C23 22.145 22.145 23 20 23H7C4.855 23 3 22.145 3 20V7C3 4.855 4.855 3 7 3H20ZM20 0H7C3.425 0 0 3.425 0 7V20C0 23.575 3.425 26 7 26H20C23.575 26 26 23.575 26 20V7C26 3.425 23.575 0 20 0Z" fill="black"/>
</svg>
