<svg width="26" height="26" viewBox="0 0 26 26" fill="none" xmlns="http://www.w3.org/2000/svg">
<g opacity="0.9" clip-path="url(#clip0_81_697)">
<path d="M19 3C21.145 3 23 4.855 23 7V19C23 21.145 21.145 23 19 23H7C4.855 23 3 21.145 3 19V7C3 4.855 4.855 3 7 3H19ZM19 0H7C3.425 0 0 3.425 0 7V19C0 22.575 3.425 26 7 26H19C22.575 26 26 22.575 26 19V7C26 3.425 22.575 0 19 0Z" fill="black"/>
<path d="M14.9999 11C14.9999 11.5948 14.9999 12.4051 14.9999 13C14.8091 12.9405 14.9999 13.1784 14.9999 13C14.8727 13.119 15.1908 13.0595 14.9999 13C15.318 12.7026 15.7455 12.3569 15.9999 12C16.7633 10.9887 17.491 9.13019 17.9999 7.99999C18.1271 7.70256 18.6819 7.99999 18.9999 7.99999C19.636 7.99999 20.3638 7.99999 20.9999 7.99999C20.9363 7.99999 21.0635 7.99999 20.9999 7.99999C21.3816 8.05947 21.1271 8.64308 20.9999 8.99999C20.7455 9.53535 21.318 9.52411 20.9999 9.99999C20.5546 10.7138 19.4452 11.3457 18.9999 12C18.8727 12.1784 19.0635 12.8215 18.9999 13C18.8091 13.2974 18.8091 13.762 18.9999 14C19.636 14.6543 20.3002 15.3457 20.9999 16C21.3816 16.4164 21.7455 16.5241 21.9999 17C22.1908 17.3569 21.4452 18 20.9999 18C20.2366 18 19.7633 18 18.9999 18C18.8091 18 19.0635 18.1784 18.9999 18C18.4274 17.1672 17.7633 16.6543 16.9999 16C16.8727 15.881 16.1908 15.119 15.9999 15C15.8727 14.9405 16.1271 15.0595 15.9999 15C15.6183 14.881 14.9999 14.6431 14.9999 15C14.9999 15.4164 14.9999 16.5836 14.9999 17C14.9999 17.6543 14.6996 18 13.9999 18C12.6005 18 11.0813 17.7138 9.99992 17C9.10937 16.4051 8.63603 14.8923 7.99992 14C7.04576 12.7508 6.57242 11.4276 5.99992 9.99999C5.80909 9.46463 5.12715 9.53535 4.99992 8.99999C4.93631 8.70256 5.68187 7.99999 5.99992 7.99999C6.69964 7.99999 7.3002 7.99999 7.99992 7.99999C7.8727 7.82153 8.25437 7.99999 7.99992 7.99999C8.31798 8.77328 8.68187 10.2862 8.99992 11C9.38159 11.8328 10.3002 12.2862 10.9999 13C11.1908 13.1784 10.8091 13.881 10.9999 14C11.1908 14.119 11.9363 13.1784 11.9999 13C11.9999 13.1784 12.0635 12.8215 11.9999 13C11.9999 12.9405 11.9999 13.0595 11.9999 13C11.9999 12.2267 12.0635 10.7733 11.9999 9.99999C11.9999 9.52411 11.318 9.35689 10.9999 8.99999C10.8727 8.82153 11.1271 8.17844 10.9999 7.99999C10.9363 7.9405 10.9999 8.05947 10.9999 7.99999C10.8727 7.99999 11.0635 7.9405 10.9999 7.99999C12.0177 7.99999 12.9821 7.99999 13.9999 7.99999C14.3816 7.99999 14.9999 8.70256 14.9999 8.99999C14.9363 9.65431 14.9999 10.4051 14.9999 11Z" fill="black"/>
</g>
<defs>
<clipPath id="clip0_81_697">
<rect width="26" height="26" fill="white"/>
</clipPath>
</defs>
</svg>
