<svg width="26" height="26" viewBox="0 0 26 26" fill="none" xmlns="http://www.w3.org/2000/svg">
<path d="M20 3C22.145 3 23 4.855 23 7V20C23 22.145 22.145 23 20 23H7C4.855 23 3 22.145 3 20V7C3 4.855 4.855 3 7 3H20ZM20 0H7C3.425 0 0 3.425 0 7V20C0 23.575 3.425 26 7 26H20C23.575 26 26 23.575 26 20V7C26 3.425 23.575 0 20 0Z" fill="black"/>
<path d="M14.0002 2H13.0002C13.981 11.7111 5.91963 11.193 2.00015 12C1.53773 12.0952 2.39692 13.964 2.00015 14C11.0235 13.1822 13.3271 21.2519 13.0002 25H14.0002C13.6078 15.1867 20.5673 13.4889 24.0002 14V12C14.5844 12 13.5098 5.57778 14.0002 2Z" fill="black"/>
</svg>
